<svg xmlns="http://www.w3.org/2000/svg" width="117" height="32" viewBox="0 0 117 32" fill="none">
<g clip-path="url(#clip0_603_33)">
<path d="M12.0935 22.9751C11.7609 23.6363 11.3118 24.2148 10.7795 24.6776C10.2472 25.1404 9.63177 25.504 8.91653 25.752C8.20129 25.9999 7.43615 26.1321 6.60447 26.1321C5.5732 26.1321 4.65835 25.9338 3.82668 25.5536C2.99501 25.1735 2.31303 24.6445 1.74749 23.9999C1.18195 23.3388 0.749484 22.5619 0.450081 21.6859C0.150678 20.8098 0.000976562 19.8677 0.000976562 18.8594C0.000976562 17.8016 0.150678 16.7933 0.450081 15.8512C0.749484 14.909 1.18195 14.0826 1.76413 13.3718C2.32967 12.6611 3.04491 12.1156 3.90985 11.7024C4.75816 11.2892 5.75617 11.0908 6.87061 11.0908C7.61912 11.0908 8.33436 11.2065 9.01633 11.4214C9.6983 11.6363 10.2971 11.9669 10.8127 12.3966C11.3284 12.8264 11.7609 13.3388 12.1102 13.9503C12.4428 14.5619 12.6591 15.2726 12.7589 16.066L1.86393 20.0826C1.93046 20.7272 2.0968 21.3388 2.3463 21.9007C2.5958 22.4627 2.91184 22.9421 3.31104 23.3718C3.71025 23.785 4.17598 24.1156 4.74152 24.3635C5.30706 24.6115 5.93913 24.7272 6.65437 24.7272C7.25318 24.7272 7.81872 24.628 8.33436 24.4297C8.85 24.2313 9.2991 23.9669 9.68167 23.6197C10.0642 23.2726 10.3803 22.8594 10.6131 22.3635C10.846 21.8677 10.9957 21.3222 11.0456 20.7107H12.7589C12.6424 21.5536 12.4262 22.314 12.0935 22.9751ZM9.4488 13.2892C8.75019 12.7602 7.88525 12.4958 6.87061 12.4958C5.98903 12.4958 5.24053 12.6611 4.60845 12.9916C3.97638 13.3222 3.46074 13.752 3.04491 14.2974C2.62907 14.8429 2.32967 15.471 2.13006 16.1983C1.93046 16.909 1.81403 17.6693 1.79739 18.4627V18.8759L10.8793 15.504C10.6298 14.5619 10.1474 13.8181 9.4488 13.2892Z" fill="white"/>
<path d="M20.6763 25.8015H18.7801L13.7734 11.4379L15.3703 11.3552L19.7449 22.9089L23.8201 11.4213H25.683L20.6763 25.8015Z" fill="white"/>
<path d="M17.1664 15.1735L17.1332 15.0412C13.3075 5.73545 8.21761 1.40487 6.30476 0.0164412C6.20496 -0.0496745 6.07189 0.0825569 6.15506 0.165201C13.4738 8.13214 17.9981 23.0908 18.6967 25.4545C18.73 25.5536 18.863 25.5536 18.8963 25.4545L19.7114 22.9916C19.7114 22.9751 19.7114 22.9421 19.7114 22.9255L17.9815 17.6528C17.9648 17.6197 17.9815 17.5702 18.0147 17.5536C19.728 15.8512 22.4559 15.8512 22.8884 15.8677C22.9216 15.8677 22.9549 15.8512 22.9715 15.8181L23.6868 14.6611C23.72 14.595 23.6868 14.5288 23.6202 14.5123C21.6076 14.066 18.7632 14.8429 17.1664 15.1735Z" fill="white"/>
<path d="M38.7908 22.9751C38.4581 23.6363 38.009 24.2148 37.4767 24.6776C36.9445 25.1404 36.329 25.504 35.6138 25.752C34.8986 25.9999 34.1334 26.1321 33.3017 26.1321C32.2705 26.1321 31.3556 25.9338 30.5239 25.5536C29.6923 25.1735 29.0103 24.6445 28.4448 23.9999C27.8792 23.3388 27.4467 22.5619 27.1473 21.6859C26.8479 20.8098 26.6982 19.8677 26.6982 18.8594C26.6982 17.8016 26.8479 16.7933 27.1473 15.8512C27.4467 14.909 27.8792 14.0826 28.4614 13.3718C29.0269 12.6611 29.7422 12.1156 30.6071 11.7024C31.4554 11.2892 32.4534 11.0908 33.5679 11.0908C34.3164 11.0908 35.0316 11.2065 35.7136 11.4214C36.3956 11.6363 36.9944 11.9669 37.51 12.3966C38.0257 12.8264 38.4581 13.3388 38.8074 13.9503C39.1401 14.5619 39.3563 15.2726 39.4561 16.066L28.5612 20.0826C28.6277 20.7272 28.7941 21.3388 29.0436 21.9007C29.2931 22.4627 29.6091 22.9421 30.0083 23.3718C30.4075 23.785 30.8732 24.1156 31.4388 24.3635C32.0043 24.6115 32.6364 24.7272 33.3516 24.7272C33.9504 24.7272 34.516 24.628 35.0316 24.4297C35.5473 24.2313 35.9964 23.9669 36.3789 23.6197C36.7615 23.2726 37.0775 22.8594 37.3104 22.3635C37.5433 21.8677 37.693 21.3222 37.7429 20.7107H39.4561C39.3563 21.5536 39.1401 22.314 38.7908 22.9751ZM36.1627 13.2892C35.4641 12.7602 34.5992 12.4958 33.5845 12.4958C32.7029 12.4958 31.9544 12.6611 31.3224 12.9916C30.6903 13.3222 30.1746 13.752 29.7588 14.2974C29.343 14.8429 29.0436 15.471 28.844 16.1983C28.6444 16.909 28.5279 17.6693 28.5113 18.4627V18.8759L37.5932 15.504C37.327 14.5619 36.8613 13.8181 36.1627 13.2892Z" fill="white"/>
<path d="M47.9724 25.8015L43.7642 20.0825V25.8015H41.9844V5.73535H43.7475V17.1568L47.9891 11.4378H49.9685L44.7455 18.6114L49.9518 25.8015H47.9724Z" fill="white"/>
<path d="M62.5261 25.8015V23.5701C62.0271 24.38 61.3617 25.0246 60.5134 25.4709C59.6651 25.9172 58.7004 26.1321 57.6025 26.1321C56.5713 26.1321 55.6564 25.9503 54.8414 25.5701C54.0264 25.2064 53.3277 24.6775 52.7622 24.0164C52.1967 23.3552 51.7476 22.5784 51.4482 21.7023C51.1321 20.8263 50.9824 19.8676 50.9824 18.8428C50.9824 17.785 51.1321 16.7767 51.4149 15.8345C51.7143 14.8924 52.1468 14.066 52.7289 13.3552C53.3111 12.6445 54.0264 12.099 54.8913 11.6858C55.7562 11.2726 56.7376 11.0742 57.8687 11.0742C58.8168 11.0742 59.715 11.2726 60.5467 11.6527C61.3784 12.0494 62.0437 12.6279 62.5094 13.4048V11.4213H64.2892V25.7684H62.5261V25.8015ZM62.5261 16.066C62.5261 15.5701 62.393 15.0907 62.1269 14.661C61.8607 14.2312 61.5114 13.8511 61.079 13.537C60.6465 13.223 60.1641 12.975 59.6485 12.7767C59.1328 12.5949 58.6172 12.4957 58.1182 12.4957C57.1202 12.4957 56.2885 12.6775 55.6065 13.0577C54.9246 13.4213 54.359 13.9172 53.9432 14.5122C53.5273 15.1073 53.2113 15.785 53.0283 16.5453C52.8454 17.3056 52.7456 18.0825 52.7456 18.8593C52.7456 19.6527 52.8454 20.4131 53.0616 21.1238C53.2778 21.8345 53.5939 22.4626 54.0263 22.9916C54.4588 23.5205 54.9911 23.9337 55.6232 24.2478C56.2552 24.5618 57.0037 24.7106 57.8687 24.7106C58.4509 24.7106 59.033 24.6114 59.5819 24.4296C60.1475 24.2478 60.6298 23.9833 61.0623 23.6362C61.4948 23.2891 61.8441 22.8759 62.1102 22.38C62.3764 21.8841 62.5094 21.3222 62.5094 20.6941V16.066H62.5261Z" fill="white"/>
<path d="M79.0273 25.9669C79.0273 26.876 78.9108 27.7025 78.678 28.4463C78.4451 29.1901 78.0625 29.8182 77.5635 30.3471C77.0645 30.876 76.4158 31.2892 75.6174 31.5702C74.819 31.8512 73.8709 32 72.7731 32C72.0246 32 71.3093 31.9173 70.6107 31.7686C69.9288 31.6033 69.3133 31.3553 68.7644 30.9917C68.2155 30.6281 67.783 30.1487 67.4504 29.5702C67.1177 28.9917 66.9181 28.2644 66.8516 27.4049H68.6147C68.648 27.9834 68.781 28.4793 69.0139 28.9091C69.2468 29.3388 69.5462 29.6859 69.9288 29.9669C70.3113 30.2479 70.7272 30.4463 71.1929 30.5785C71.6586 30.7107 72.1576 30.7768 72.6899 30.7768C74.1869 30.7768 75.3346 30.3636 76.0998 29.5372C76.8649 28.7107 77.2475 27.5537 77.2475 26.0661V22.7438C76.8649 23.8843 76.2329 24.7272 75.3679 25.2727C74.503 25.8347 73.4717 26.1157 72.2741 26.1157C70.7105 26.1157 69.4963 25.6529 68.5981 24.7438C67.7165 23.8347 67.2674 22.595 67.2674 21.0413V11.438H69.0306V20.3801C69.0306 21.6363 69.3466 22.6611 69.962 23.438C70.5775 24.2148 71.5422 24.6115 72.8396 24.6115C73.5715 24.6115 74.2036 24.4628 74.7525 24.1818C75.3014 23.9008 75.7505 23.5206 76.1164 23.0413C76.4824 22.562 76.7485 22.0165 76.9315 21.4049C77.1144 20.7768 77.1976 20.1322 77.1976 19.438V11.438H78.9774V25.9834V25.9669H79.0273Z" fill="white"/>
<path d="M92.75 21.8677C92.75 22.6445 92.5837 23.3057 92.2344 23.8677C91.9017 24.4131 91.4526 24.8594 90.9204 25.19C90.3881 25.5206 89.7893 25.7685 89.1239 25.9173C88.4586 26.066 87.7766 26.1321 87.0947 26.1321C86.1798 26.1321 85.3481 26.033 84.5996 25.8181C83.8511 25.6032 83.2191 25.3057 82.6868 24.8925C82.1545 24.4793 81.7387 23.9338 81.4559 23.2726C81.1565 22.6115 81.0234 21.8346 81.0234 20.9255H82.7367C82.7533 22.2809 83.1525 23.2726 83.9343 23.9173C84.7161 24.5619 85.7806 24.8759 87.1446 24.8759C87.577 24.8759 88.0261 24.8264 88.4919 24.7272C88.9576 24.628 89.3734 24.4627 89.7394 24.2313C90.122 24.0164 90.4214 23.7189 90.6709 23.3718C90.9204 23.0247 91.0368 22.5784 91.0368 22.066C91.0368 21.5536 90.9204 21.1239 90.6875 20.7768C90.4546 20.4462 90.1386 20.1652 89.756 19.9503C89.3568 19.7354 88.8911 19.5702 88.3588 19.4379C87.8099 19.3057 87.2444 19.1735 86.6456 19.0247C85.947 18.8594 85.2816 18.6941 84.6662 18.5288C84.0507 18.3635 83.5018 18.1321 83.0361 17.8512C82.5704 17.5702 82.2044 17.19 81.9383 16.7437C81.6721 16.2809 81.5391 15.7024 81.5391 14.9751C81.5391 14.4627 81.6555 13.9503 81.8884 13.4875C82.1212 13.0082 82.4706 12.595 82.9197 12.2478C83.3688 11.9007 83.9177 11.6197 84.5664 11.4049C85.2151 11.2065 85.9636 11.0908 86.8119 11.0908C87.577 11.0908 88.3089 11.1735 88.9909 11.3388C89.6729 11.504 90.255 11.7685 90.754 12.1487C91.253 12.5123 91.6356 12.9916 91.935 13.5702C92.2344 14.1487 92.3675 14.8594 92.3675 15.6859H90.7208C90.7208 14.4958 90.3548 13.6363 89.623 13.0908C88.8911 12.5454 87.9596 12.2809 86.8452 12.2809C86.0634 12.2809 85.4313 12.3801 84.9489 12.595C84.4666 12.8098 84.1173 13.0578 83.8678 13.3388C83.6183 13.6197 83.4519 13.9007 83.3688 14.1817C83.2856 14.4627 83.2523 14.6941 83.2523 14.8429C83.2523 15.4545 83.4353 15.9338 83.8179 16.2974C84.2004 16.6445 84.6495 16.9255 85.1984 17.1404C85.7307 17.3388 86.3129 17.504 86.9117 17.6197C87.5105 17.7354 88.0428 17.8512 88.5085 17.9834C89.0241 18.1321 89.5398 18.2974 90.0554 18.4627C90.5711 18.6445 91.0202 18.8759 91.436 19.1569C91.8352 19.4379 92.1679 19.8016 92.4174 20.2313C92.617 20.6445 92.75 21.19 92.75 21.8677Z" fill="white"/>
<path d="M106.489 22.9751C106.156 23.6363 105.707 24.2148 105.175 24.6776C104.643 25.1404 104.027 25.504 103.312 25.752C102.597 25.9999 101.832 26.1321 101 26.1321C99.9687 26.1321 99.0539 25.9338 98.2222 25.5536C97.3905 25.1735 96.7085 24.6445 96.143 23.9999C95.5775 23.3388 95.145 22.5619 94.8456 21.6859C94.5462 20.8098 94.3965 19.8677 94.3965 18.8594C94.3965 17.8016 94.5462 16.7933 94.8456 15.8512C95.145 14.909 95.5775 14.0826 96.1596 13.3718C96.7252 12.6611 97.4404 12.1156 98.3054 11.7024C99.1537 11.2892 100.135 11.0908 101.266 11.0908C102.015 11.0908 102.73 11.2065 103.412 11.4214C104.094 11.6363 104.693 11.9669 105.208 12.3966C105.724 12.8264 106.156 13.3388 106.506 13.9503C106.838 14.5619 107.055 15.2726 107.154 16.066L96.2594 20.0826C96.326 20.7272 96.4923 21.3388 96.7418 21.9007C96.9913 22.4627 97.3073 22.9421 97.7066 23.3718C98.1058 23.785 98.5715 24.1156 99.137 24.3635C99.7026 24.6115 100.335 24.7272 101.05 24.7272C101.649 24.7272 102.214 24.628 102.73 24.4297C103.245 24.2313 103.695 23.9669 104.077 23.6197C104.46 23.2726 104.776 22.8594 105.009 22.3635C105.242 21.8677 105.391 21.3222 105.441 20.7107H107.154C107.038 21.5536 106.822 22.314 106.489 22.9751ZM103.844 13.2892C103.146 12.7602 102.281 12.4958 101.266 12.4958C100.385 12.4958 99.636 12.6611 99.004 12.9916C98.3719 13.3222 97.8562 13.752 97.4404 14.2974C97.0246 14.8429 96.7252 15.471 96.5256 16.1983C96.326 16.909 96.2095 17.6693 96.1929 18.4627V18.8759L105.275 15.504C105.025 14.5619 104.543 13.8181 103.844 13.2892Z" fill="white"/>
<path d="M115.854 12.6116C115.105 12.6116 114.456 12.7603 113.908 13.0413C113.359 13.3223 112.91 13.7025 112.544 14.1818C112.194 14.6611 111.912 15.2066 111.729 15.8182C111.546 16.4463 111.446 17.0909 111.446 17.7851V25.7851H109.666V11.438H111.429V14.4793C111.828 13.3388 112.477 12.4959 113.342 11.9504C114.207 11.3884 115.238 11.1074 116.436 11.1074C116.519 11.1074 116.619 11.1074 116.719 11.1074C116.818 11.1074 116.918 11.124 117.001 11.1405L115.854 12.6116Z" fill="white"/>
</g>
<defs>
<clipPath id="clip0_603_33">
<rect width="117" height="32" fill="white"/>
</clipPath>
</defs>
</svg>